<?xml version="1.0" encoding="UTF-8" standalone="no"?>
<!-- Created with Inkscape (http://www.inkscape.org/) -->

<svg
   xmlns:dc="http://purl.org/dc/elements/1.1/"
   xmlns:cc="http://creativecommons.org/ns#"
   xmlns:rdf="http://www.w3.org/1999/02/22-rdf-syntax-ns#"
   xmlns:svg="http://www.w3.org/2000/svg"
   xmlns="http://www.w3.org/2000/svg"
   xmlns:sodipodi="http://sodipodi.sourceforge.net/DTD/sodipodi-0.dtd"
   xmlns:inkscape="http://www.inkscape.org/namespaces/inkscape"
   version="1.1"
   id="svg2"
   width="70"
   height="70"
   viewBox="0 0 70 70.000001"
   sodipodi:docname="logo3.svg"
   inkscape:version="0.92.4 (5da689c313, 2019-01-14)">
  <metadata
     id="metadata8">
    <rdf:RDF>
      <cc:Work
         rdf:about="">
        <dc:format>image/svg+xml</dc:format>
        <dc:type
           rdf:resource="http://purl.org/dc/dcmitype/StillImage" />
        <dc:title></dc:title>
      </cc:Work>
    </rdf:RDF>
  </metadata>
  <defs
     id="defs6" />
  <sodipodi:namedview
     pagecolor="#ffffff"
     bordercolor="#666666"
     borderopacity="1"
     objecttolerance="10"
     gridtolerance="10"
     guidetolerance="10"
     inkscape:pageopacity="0"
     inkscape:pageshadow="2"
     inkscape:window-width="1618"
     inkscape:window-height="986"
     id="namedview4"
     showgrid="false"
     inkscape:zoom="4.0000002"
     inkscape:cx="-4.3113019"
     inkscape:cy="16.349269"
     inkscape:window-x="62"
     inkscape:window-y="27"
     inkscape:window-maximized="1"
     inkscape:current-layer="svg2" />
  <g
     id="g895"
     transform="matrix(1.7808971,0,0,1.7808917,6.5056464,0.30277981)">
    <rect
       y="0"
       x="0"
       height="32"
       width="32"
       id="rect900"
       style="opacity:1;fill:none;fill-opacity:1;stroke:none;stroke-width:1.21599996;stroke-miterlimit:4;stroke-dasharray:none;stroke-opacity:1" />
    <g
       transform="matrix(0.11991541,0,0,0.12005169,-0.54552578,-0.08389773)"
       id="g898">
      <path
         style="opacity:1;fill:#fffffe;fill-opacity:1;stroke:none;stroke-width:0.23747307px;stroke-linecap:butt;stroke-linejoin:miter;stroke-opacity:1"
         d="M 208.32592,0.69887738 184.07398,15.703279 163.44305,55.408125 153.90099,58.944711 H 121.93906 L 112.33069,55.207757 91.478043,15.467197 67.06098,0.79349541 58.56808,20.515818 46.583577,87.703999 30.35284,133.28259 25.068609,179.80458 11.763167,226.51535 c 0,0 119.450843,40.7895 126.056803,40.8156 6.60596,0.0261 126.37051,-40.72098 126.37051,-40.72098 l -13.40005,-46.89954 -5.28425,-46.42784 -16.51411,-46.050292 -11.70112,-66.71648 z"
         id="path4520-6"
         inkscape:connector-curvature="0"
         sodipodi:nodetypes="ccccccccccccczcccccc" />
      <path
         style="fill:#2b2a29;fill-opacity:1;stroke:none;stroke-width:0.23747307px;stroke-linecap:butt;stroke-linejoin:miter;stroke-opacity:1"
         d="M 67.060929,0.79324272 58.568039,20.51561 46.583638,87.70377 30.352788,133.28225 25.068321,179.80439 11.762807,226.51526 32.523194,220.47587 94.14379,251.80518 37.996386,200.84787 49.414592,192.54372 40.261155,153.94828 64.135593,127.24287 62.437019,99.310713 78.479134,85.439 l 11.323854,2.4535 12.267502,-14.909732 16.26537,15.921778 6.87282,42.971804 -9.14152,25.28932 12.1442,-4.33722 h 19.2172 l 12.41112,4.47066 -9.27497,-25.88984 6.93955,-42.371272 16.34797,-15.947612 12.29782,14.802114 11.32385,-2.359134 3.58588,2.925327 12.36187,10.663288 -1.50985,28.403979 23.87445,26.51668 -9.53091,39.25601 15.94775,8.02106 -21.04348,13.58861 -39.53909,36.89686 61.9037,-31.23494 20.66603,6.03939 -13.3999,-46.8996 -5.28447,-46.42778 L 228.99194,87.231942 217.29063,20.51561 208.32592,0.69887738 184.07401,15.702975 l -20.6311,39.704913 -9.54188,3.536501 H 121.93908 L 112.33048,55.20771 91.477971,15.46706 Z"
         id="path4520"
         inkscape:connector-curvature="0" />
      <path
         style="fill:#2b2a29;fill-opacity:1;stroke:none;stroke-width:0.23747307px;stroke-linecap:butt;stroke-linejoin:miter;stroke-opacity:1"
         d="m 155.23555,130.14146 0.16683,-3.26959 11.5103,-19.15047 9.74205,-3.46979 20.13502,-0.26982 -4.97778,4.41159 -7.47845,1.46267 4.76545,4.50594 -2.76891,9.7741 -7.3399,-7.073 1.66816,10.8764 -10.6095,-0.60053 -5.07121,-9.70869 z"
         id="path4522"
         inkscape:connector-curvature="0" />
      <path
         style="fill:#b2b3b3;fill-opacity:1;stroke:none;stroke-width:0.23747307px;stroke-linecap:butt;stroke-linejoin:miter;stroke-opacity:1"
         d="m 102.07049,72.982768 16.26537,15.921778 6.87282,42.971804 -2.50158,3.43736 L 63.771575,124.13067 62.437019,99.310713 78.479134,85.439 89.802988,87.8925 Z"
         id="path4643"
         inkscape:connector-curvature="0" />
      <path
         style="fill:#2b2a29;fill-opacity:1;stroke:none;stroke-width:0.23747307px;stroke-linecap:butt;stroke-linejoin:miter;stroke-opacity:1"
         d="m 78.903775,103.98179 20.666025,0.2831 9.48373,3.39716 11.4654,19.34491 0.2359,3.34997 -10.38019,-3.06688 -15.287196,0.66056 -5.661916,-3.91617 -5.709108,-6.08656 z"
         id="path4524"
         inkscape:connector-curvature="0" />
      <path
         style="fill:#00a0e3;fill-opacity:1;stroke:none;stroke-width:0.23747307px;stroke-linecap:butt;stroke-linejoin:miter;stroke-opacity:1"
         d="m 91.360018,109.974 -4.812645,4.43517 2.878155,9.62527 5.661916,3.91617 10.804846,-0.51901 4.90699,-9.71964 -5.14291,-4.95418 0.94365,5.28446 -3.06686,5.61474 -9.059091,0.0944 -3.821799,-8.91753 5.001369,-4.71827 z"
         id="path4526"
         inkscape:connector-curvature="0" />
      <path
         style="fill:#fefefe;fill-opacity:1;stroke:none;stroke-width:0.23747307px;stroke-linecap:butt;stroke-linejoin:miter;stroke-opacity:1"
         d="m 95.087444,127.95061 1.792947,-10.75765 -7.454863,6.84148 z"
         id="path4528"
         inkscape:connector-curvature="0" />
      <path
         style="fill:#2b2a29;fill-opacity:1;stroke:none;stroke-width:0.23747307px;stroke-linecap:butt;stroke-linejoin:miter;stroke-opacity:1"
         d="m 116.31966,159.3271 1.98168,4.90701 6.7943,2.54786 3.11406,6.32248 9.814,2.1704 9.71964,-2.26477 3.11405,-6.32248 6.79432,-2.54786 1.98167,-4.71827 -11.60695,-3.49152 c -6.60557,0.56833 -13.21115,0.6875 -19.81673,0 z"
         id="path4530"
         inkscape:connector-curvature="0"
         sodipodi:nodetypes="cccccccccccc" />
      <path
         inkscape:connector-curvature="0"
         id="path4540"
         d="m 199.79764,172.6916 35.98861,-18.64896 -9.53091,39.25601 -60.54373,42.13709 c -18.58915,-0.40614 -37.19017,-0.15272 -55.78328,-0.13345 l -32.688412,-20.56375 -27.825326,-22.19482 -9.153437,-38.59544 36.047583,18.7787 19.816723,13.21117 25.525839,27.31877 31.61241,0.18874 26.09203,-27.13005 z"
         style="fill:#b2b3b3;fill-opacity:1;stroke:none;stroke-width:0.23747307px;stroke-linecap:butt;stroke-linejoin:miter;stroke-opacity:1"
         sodipodi:nodetypes="cccccccccccccc" />
      <path
         style="fill:#2b2a29;fill-opacity:1;stroke:none;stroke-width:0.23747307px;stroke-linecap:butt;stroke-linejoin:miter;stroke-opacity:1"
         d="m 99.522619,179.14383 11.512581,10.28583 16.60831,3.30279 5.56755,-3.96335 4.81264,-5.75629 4.43517,5.56757 5.85065,4.24644 16.60831,-3.20843 11.32386,-10.47456 -2.64223,5.4732 -8.39853,9.15344 -14.721,4.71827 -8.39852,-0.0944 -4.05771,3.0197 -4.3408,-3.0197 h -8.58726 l -14.721,-4.52954 -8.30415,-9.34217 z"
         id="path4532"
         inkscape:connector-curvature="0" />
      <path
         style="fill:#898989;fill-opacity:1;stroke:none;stroke-width:0.23747307px;stroke-linecap:butt;stroke-linejoin:miter;stroke-opacity:1"
         d="m 199.79764,172.6916 -11.09972,15.98314 -10.56892,19.81673 -19.89075,26.76077 -40.70311,0.05 -19.150489,-25.95658 -22.075913,-36.61873 19.816723,13.21117 25.525839,27.31877 31.61241,0.18874 26.09203,-27.13005 z"
         id="path4538"
         inkscape:connector-curvature="0" />
      <path
         style="fill:#2b2a29;fill-opacity:1;stroke:none;stroke-width:0.23747307px;stroke-linecap:butt;stroke-linejoin:miter;stroke-opacity:1"
         d="m 199.7087,172.56278 -20.35296,13.75283 -26.09203,27.13005 -31.61241,-0.18874 -25.525839,-27.31877 -19.816723,-13.21117 15.192824,14.06045 11.890038,18.49562 15.09846,14.4379 19.53364,4.907 18.49562,-4.71826 15.86493,-14.36738 12.44469,-19.32107 z"
         id="path4534"
         inkscape:connector-curvature="0" />
      <path
         style="fill:#2b2a29;fill-opacity:1;stroke:none;stroke-width:0.23747307px;stroke-linecap:butt;stroke-linejoin:miter;stroke-opacity:1"
         d="m 109.92833,235.30229 55.78328,0.13345 -27.89164,31.89521 z"
         id="path4536"
         inkscape:connector-curvature="0" />
      <g
         id="g4608"
         transform="matrix(0.23747306,0,0,0.23747306,398.75098,27.956866)">
        <path
           inkscape:connector-curvature="0"
           style="fill:#fefefe;fill-opacity:1;stroke:none;stroke-width:1px;stroke-linecap:butt;stroke-linejoin:miter;stroke-opacity:1"
           d="m -1460.7012,237.57227 -7.1953,32.07421 18.6777,16.49024 -17.8828,112.85351 14.7032,44.50586 317.1035,34.57227 13.5117,-12.31836 -4.7695,-152.99023 -15.0996,-19.47071 z m 37.709,41.01367 261.0742,43.31445 15.0996,13.50977 -0.3984,119.60937 -292.8633,-55.63086 z"
           id="path4602" />
        <path
           style="fill:none;fill-opacity:1;stroke:none;stroke-width:1px;stroke-linecap:butt;stroke-linejoin:miter;stroke-opacity:1"
           d="m -1440.0799,399.38788 292.8639,55.63222 0.3974,-119.60928 -15.1002,-13.51068 -261.0741,-43.31367 z"
           id="path4604"
           inkscape:connector-curvature="0" />
        <path
           style="fill:#2b2a29;fill-opacity:1;stroke:none;stroke-width:1px;stroke-linecap:butt;stroke-linejoin:miter;stroke-opacity:1"
           d="m -1364.5551,254.32266 -32.6649,28.54834 210.2669,34.87509 V 285.3418 Z m -46.0445,150.66562 -22.9355,40.56641 267.7598,29.21875 3.3534,-22.69336 z"
           id="path4606"
           inkscape:connector-curvature="0"
           sodipodi:nodetypes="cccccccccc" />
      </g>
      <g
         transform="matrix(-0.23747306,0,0,0.23747306,-123.00211,27.817757)"
         id="g4616">
        <path
           inkscape:connector-curvature="0"
           id="path4610"
           d="m -1460.7012,237.57227 -7.1953,32.07421 18.6777,16.49024 -17.8828,112.85351 14.7032,44.50586 317.1035,34.57227 13.5117,-12.31836 -4.7695,-152.99023 -15.0996,-19.47071 z m 37.709,41.01367 261.0742,43.31445 15.0996,13.50977 -0.3984,119.60937 -292.8633,-55.63086 z"
           style="fill:#fefefe;fill-opacity:1;stroke:none;stroke-width:1px;stroke-linecap:butt;stroke-linejoin:miter;stroke-opacity:1" />
        <path
           inkscape:connector-curvature="0"
           id="path4612"
           d="m -1440.0799,399.38788 292.8639,55.63222 0.3974,-119.60928 -15.1002,-13.51068 -261.0741,-43.31367 z"
           style="fill:none;fill-opacity:1;stroke:none;stroke-width:1px;stroke-linecap:butt;stroke-linejoin:miter;stroke-opacity:1" />
        <path
           sodipodi:nodetypes="cccccccccc"
           inkscape:connector-curvature="0"
           id="path4614"
           d="m -1364.5551,254.32266 -32.6649,28.54834 210.2669,34.87509 V 285.3418 Z m -46.0445,150.66562 -22.9355,40.56641 267.7598,29.21875 3.3534,-22.69336 z"
           style="fill:#2b2a29;fill-opacity:1;stroke:none;stroke-width:1px;stroke-linecap:butt;stroke-linejoin:miter;stroke-opacity:1" />
      </g>
      <g
         id="g4839"
         transform="matrix(0.23747306,0,0,0.23747306,2.2318994,0.69223414)">
        <path
           inkscape:connector-curvature="0"
           id="path4833"
           d="m 782.03125,86.843742 69.53125,-35.15625 28.90625,47.656251 23.4375,170.312497 -85.9375,-14.0625 7.03125,-51.5625 -43.75,50 -19.53125,0.78125 -32.03125,-25 z"
           style="fill:#b2b3b3;fill-opacity:1;stroke:none;stroke-width:1px;stroke-linecap:butt;stroke-linejoin:miter;stroke-opacity:1" />
        <path
           style="fill:#b2b3b3;fill-opacity:1;stroke:none;stroke-width:1px;stroke-linecap:butt;stroke-linejoin:miter;stroke-opacity:1"
           d="m 357.66602,85.232414 -69.53125,-35.15625 -28.90625,47.656251 -23.4375,170.312495 85.9375,-14.0625 -7.03125,-51.5625 43.75,50 19.53125,0.78125 32.03125,-25 z"
           id="path4835"
           inkscape:connector-curvature="0" />
      </g>
    </g>
    <g
       id="g986"
       transform="matrix(0.0549527,0,0,0.0549527,-2.3293741,12.650439)">
      <path
         inkscape:connector-curvature="0"
         style="fill:#2b2a29;fill-opacity:1;stroke:none;stroke-width:0.51991385px;stroke-linecap:butt;stroke-linejoin:miter;stroke-opacity:1"
         d="M 57.250063,275.57647 55.411893,433.65934 94.38116,418.21867 94.013527,264.54742 Z"
         id="path4620" />
      <path
         inkscape:connector-curvature="0"
         style="fill:#2b2a29;fill-opacity:1;stroke:none;stroke-width:0.51991385px;stroke-linecap:butt;stroke-linejoin:miter;stroke-opacity:1"
         d="m 102.46911,262.34163 0.36763,153.30362 36.39583,10.66141 -0.36763,-70.58583 26.10206,24.99911 18.01409,-15.80824 -1.10291,71.68873 29.77841,9.92615 -2.41518,-129.36236 -22.9516,-13.09606 -22.2419,28.49169 -41.17508,-60.47592 z"
         id="path4622" />
      <path
         inkscape:connector-curvature="0"
         style="fill:#2b2a29;fill-opacity:1;stroke:none;stroke-width:0.51991385px;stroke-linecap:butt;stroke-linejoin:miter;stroke-opacity:1"
         d="m 221.49188,322.85078 0.25996,126.33905 20.27664,6.75889 33.21998,-46.94453 -0.58885,55.30053 23.51958,7.76132 V 361.84431 l -18.26199,-9.16347 -33.15151,46.60465 -1.35776,-64.08676 z"
         id="path4624" />
      <path
         inkscape:connector-curvature="0"
         style="fill:#2b2a29;fill-opacity:1;stroke:none;stroke-width:0.51991385px;stroke-linecap:butt;stroke-linejoin:miter;stroke-opacity:1"
         d="m 343.61173,368.6976 c -1.58179,-0.009 -3.22657,0.0146 -4.93715,0.0742 -10.15854,-0.0156 -27.19902,0.20717 -27.19902,0.20717 l -0.29854,109.8998 h 27.49756 v -29.13545 c 9.02933,0.25741 26.1131,3.25233 39.72365,-12.67087 9.9962,-11.69472 11.36929,-33.86495 4.28928,-48.49012 -5.77017,-11.91945 -15.3492,-19.73999 -39.07578,-19.88469 z m -5.16289,25.55731 h 13.52023 c 9.5951,1.05838 14.11574,25.85818 0.78964,31.07322 h -14.30987 z"
         id="path4626" />
      <path
         inkscape:connector-curvature="0"
         style="fill:#00a0e3;fill-opacity:1;stroke:none;stroke-width:0.51991385px;stroke-linecap:butt;stroke-linejoin:miter;stroke-opacity:1"
         d="m 397.22276,353.26573 0.25996,111.0016 24.43596,-7.27879 28.85521,-47.0522 v 38.47362 l 23.39613,-7.27879 0.25996,-127.11894 -24.17601,12.47793 -28.59525,81.10657 0.25996,-67.06889 z"
         id="path4631" />
      <path
         inkscape:connector-curvature="0"
         style="fill:#2b2a29;fill-opacity:1;stroke:none;stroke-width:0.51991385px;stroke-linecap:butt;stroke-linejoin:miter;stroke-opacity:1"
         d="m 482.60329,309.0312 83.26923,-42.09415 v 43.74852 l -25.73442,11.39667 -0.36763,100.18043 -35.29292,10.47761 0.91908,-101.8348 -21.32281,9.19084 z"
         id="path4633" />
      <path
         inkscape:connector-curvature="0"
         style="fill:#2b2a29;fill-opacity:1;stroke:none;stroke-width:0.51991385px;stroke-linecap:butt;stroke-linejoin:miter;stroke-opacity:1"
         d="m 573.86352,269.03969 40.94319,18.7169 3.24947,43.54278 -27.6854,9.35846 v 86.43567 l -24.306,-12.60792 -18.84688,6.109 -0.51991,-92.15474 28.85525,-13.77771 z"
         id="path4635" />
    </g>
  </g>
</svg>
